<?xml version="1.0" standalone="no"?>
<!DOCTYPE svg PUBLIC "-//W3C//DTD SVG 20010904//EN"
 "http://www.w3.org/TR/2001/REC-SVG-20010904/DTD/svg10.dtd">
<svg version="1.0" xmlns="http://www.w3.org/2000/svg"
 width="500.000000pt" height="500.000000pt" viewBox="0 0 500.000000 500.000000"
 preserveAspectRatio="xMidYMid meet">
<metadata>
Created by potrace 1.11, written by Peter Selinger 2001-2013
</metadata>
<g transform="translate(0.000000,500.000000) scale(0.100000,-0.100000)"
fill="#000000" stroke="none">
<path d="M1520 4220 c-531 -287 -969 -525 -973 -529 -4 -4 27 -28 70 -53 43
-25 227 -131 408 -235 182 -105 588 -340 902 -522 l573 -331 757 438 c417 241
858 496 981 567 123 70 219 132 215 136 -16 16 -1929 1043 -1948 1046 -12 2
-409 -207 -985 -517z m1596 -167 c341 -185 627 -343 636 -351 10 -8 15 -18 13
-23 -8 -12 -1251 -719 -1265 -719 -7 0 -200 107 -429 237 -693 395 -834 478
-838 489 -2 6 281 166 629 356 348 191 634 347 634 347 1 1 280 -150 620 -336z"/>
<path d="M1881 4010 c-321 -175 -585 -320 -586 -322 -7 -6 348 -203 359 -200
6 2 194 105 419 229 l407 225 0 194 c0 107 -3 194 -7 193 -5 0 -271 -144 -592
-319z"/>
<path d="M2520 4136 l0 -194 408 -225 c224 -124 412 -227 418 -229 6 -2 90 42
187 97 l176 100 -27 16 c-44 27 -1152 629 -1157 629 -3 0 -5 -87 -5 -194z"/>
<path d="M2316 3810 l-159 -89 2 -263 c1 -145 5 -266 9 -270 4 -4 75 -45 157
-92 l150 -86 3 226 c1 124 1 324 0 444 l-3 218 -159 -88z"/>
<path d="M2520 3455 l0 -446 28 15 c48 25 277 157 284 164 4 4 8 126 9 270 l1
264 -93 52 c-52 28 -124 68 -161 89 l-68 38 0 -446z"/>
<path d="M547 2608 c17 -574 32 -1075 32 -1114 l1 -72 937 -578 c515 -319 942
-583 950 -587 11 -7 13 181 13 1127 l0 1134 -37 22 c-122 72 -1906 1102 -1916
1106 -9 3 -4 -244 20 -1038z m958 78 l620 -363 6 -144 c11 -243 10 -1317 -1
-1324 -8 -5 -1195 709 -1228 739 -9 9 -17 180 -31 727 -9 393 -16 717 -14 722
2 4 10 7 16 7 7 -1 291 -164 632 -364z"/>
<path d="M897 2823 c3 -98 10 -399 16 -670 7 -270 15 -494 18 -498 4 -3 80 36
170 88 l164 95 -2 124 c-2 67 -6 283 -9 478 l-6 355 -121 70 c-67 39 -147 85
-179 103 l-57 32 6 -177z"/>
<path d="M1523 2362 l-223 -127 0 -188 c0 -104 3 -186 8 -184 4 2 167 97 362
209 195 113 368 211 383 219 l28 15 -157 92 c-86 51 -162 92 -168 92 -6 0
-111 -58 -233 -128z"/>
<path d="M1708 2052 c-208 -119 -378 -220 -378 -223 0 -7 301 -189 313 -189 4
0 108 59 232 131 l225 131 0 184 c0 101 -3 184 -7 184 -5 0 -178 -98 -385
-218z"/>
<path d="M1117 1711 c-92 -53 -167 -98 -167 -101 0 -5 1121 -691 1141 -698 5
-2 9 88 9 200 l0 205 -408 245 -408 245 -167 -96z"/>
<path d="M3730 3219 c-410 -237 -850 -491 -977 -565 l-233 -136 0 -1134 c0
-625 3 -1133 8 -1131 68 41 1879 1161 1885 1166 8 8 75 2231 67 2231 -3 0
-340 -194 -750 -431z m410 -288 c0 -65 -7 -390 -15 -722 -12 -441 -19 -607
-28 -615 -33 -30 -1219 -744 -1227 -739 -11 7 -12 1095 -1 1329 l6 139 620
363 c341 200 626 363 633 364 9 0 12 -30 12 -119z"/>
<path d="M3929 2897 l-176 -102 -7 -355 c-3 -195 -7 -411 -9 -478 l-2 -124
163 -95 c90 -52 166 -92 170 -89 4 5 42 1336 38 1343 -1 1 -81 -44 -177 -100z"/>
<path d="M3072 2397 l-153 -91 28 -14 c15 -9 188 -107 383 -220 195 -112 358
-207 363 -209 4 -2 7 81 7 184 l0 189 -223 127 c-122 70 -229 127 -237 126 -8
0 -84 -42 -168 -92z"/>
<path d="M2900 2086 l0 -184 225 -131 c124 -72 228 -131 232 -131 12 0 313
182 313 189 -1 6 -753 441 -764 441 -3 0 -6 -83 -6 -184z"/>
<path d="M3308 1561 l-408 -244 0 -205 c0 -112 4 -202 9 -200 20 7 1140 693
1140 698 0 3 -75 48 -167 101 l-167 95 -407 -245z"/>
</g>
</svg>
