<svg height="500pt" preserveAspectRatio="xMidYMid meet" viewBox="0 0 500 500" width="500pt" xmlns="http://www.w3.org/2000/svg"><g transform="matrix(.1 0 0 -.1 0 500)"><path d="m1520 4220c-531-287-969-525-973-529s27-28 70-53 227-131 408-235c182-105 588-340 902-522l573-331 757 438c417 241 858 496 981 567 123 70 219 132 215 136-16 16-1929 1043-1948 1046-12 2-409-207-985-517zm1596-167c341-185 627-343 636-351 10-8 15-18 13-23-8-12-1251-719-1265-719-7 0-200 107-429 237-693 395-834 478-838 489-2 6 281 166 629 356 348 191 634 347 634 347 1 1 280-150 620-336z"/><path d="m1881 4010c-321-175-585-320-586-322-7-6 348-203 359-200 6 2 194 105 419 229l407 225v194c0 107-3 194-7 193-5 0-271-144-592-319z"/><path d="m2520 4136v-194l408-225c224-124 412-227 418-229s90 42 187 97l176 100-27 16c-44 27-1152 629-1157 629-3 0-5-87-5-194z"/><path d="m2316 3810-159-89 2-263c1-145 5-266 9-270s75-45 157-92l150-86 3 226c1 124 1 324 0 444l-3 218z"/><path d="m2520 3455v-446l28 15c48 25 277 157 284 164 4 4 8 126 9 270l1 264-93 52c-52 28-124 68-161 89l-68 38z"/><path d="m547 2608c17-574 32-1075 32-1114l1-72 937-578c515-319 942-583 950-587 11-7 13 181 13 1127v1134l-37 22c-122 72-1906 1102-1916 1106-9 3-4-244 20-1038zm958 78 620-363 6-144c11-243 10-1317-1-1324-8-5-1195 709-1228 739-9 9-17 180-31 727-9 393-16 717-14 722 2 4 10 7 16 7 7-1 291-164 632-364z"/><path d="m897 2823c3-98 10-399 16-670 7-270 15-494 18-498 4-3 80 36 170 88l164 95-2 124c-2 67-6 283-9 478l-6 355-121 70c-67 39-147 85-179 103l-57 32z"/><path d="m1523 2362-223-127v-188c0-104 3-186 8-184 4 2 167 97 362 209 195 113 368 211 383 219l28 15-157 92c-86 51-162 92-168 92s-111-58-233-128z"/><path d="m1708 2052c-208-119-378-220-378-223 0-7 301-189 313-189 4 0 108 59 232 131l225 131v184c0 101-3 184-7 184-5 0-178-98-385-218z"/><path d="m1117 1711c-92-53-167-98-167-101 0-5 1121-691 1141-698 5-2 9 88 9 200v205l-408 245-408 245z"/><path d="m3730 3219c-410-237-850-491-977-565l-233-136v-1134c0-625 3-1133 8-1131 68 41 1879 1161 1885 1166 8 8 75 2231 67 2231-3 0-340-194-750-431zm410-288c0-65-7-390-15-722-12-441-19-607-28-615-33-30-1219-744-1227-739-11 7-12 1095-1 1329l6 139 620 363c341 200 626 363 633 364 9 0 12-30 12-119z"/><path d="m3929 2897-176-102-7-355c-3-195-7-411-9-478l-2-124 163-95c90-52 166-92 170-89 4 5 42 1336 38 1343-1 1-81-44-177-100z"/><path d="m3072 2397-153-91 28-14c15-9 188-107 383-220 195-112 358-207 363-209 4-2 7 81 7 184v189l-223 127c-122 70-229 127-237 126-8 0-84-42-168-92z"/><path d="m2900 2086v-184l225-131c124-72 228-131 232-131 12 0 313 182 313 189-1 6-753 441-764 441-3 0-6-83-6-184z"/><path d="m3308 1561-408-244v-205c0-112 4-202 9-200 20 7 1140 693 1140 698 0 3-75 48-167 101l-167 95z"/></g></svg>