<?xml version="1.0" encoding="utf-8"?>
<!-- This SVG was hand-edited by Sam. :) -->
<!-- If you're reading this, you should _really_ reach out to us. -->
<!-- Email me at joinus@hedronvision.com! -->
<svg xmlns="http://www.w3.org/2000/svg" viewBox="-250 -250 500 500">
<style>
    .center path {fill:#111118;}
    .edge path {fill:none;stroke:#29eaea;stroke-width:3;stroke-linecap:round;stroke-linejoin:round;}
</style>
<g class="center">
    <path d="M0-226.7l200.5 108-6.8 227.6L-.1 228.6l-193.8-119.7-6.8-227.6zM85.3-96l-48.9-27.1-.3 55.1zm37 121.6l1-55.9L74.4-1.7zM38 117.5l47.9-28.8-47.6-27.8zM-85.9 88.7l47.9 28.8-.3-56.6zm-37.4-119l1 55.9 47.9-27.3zm86.9-92.8L-85.3-96l49.2 28z"/>
</g>
<g class="edge">
    <path d="M-85.9 88.7l47.6-27.8M38.3 60.9l47.6 27.8M-36.4-123.1l0.3 55.1M-74.4-1.6l-47.9 27.3M122.3 25.6l-47.9-27.3M36.1-68l0.3-55.1"/>
    <path d="M0-47.4v-95.8M121.5 67.2l-83-47.9M-121.5 67.2l83-47.9"/>
    <path d="M-85.3-96l85.3-47.2 85.3 47.2M123.3-30.3l-1.8 97.5-83.5 50.3M-38 117.5l-83.5-50.3-1.8-97.5"/>
    <path d="M0-186.7l124.9 68.1-124.9 71.2-124.9-71.2zv43.5M159.2 89l-121.5 74.1 0.8-143.8 124.1-72.6zl-37.8-21.8M-159.2 89l-3.4-142.3 124.1 72.6 0.8 143.8zl37.8-21.8"/>
    <path d="M200.5-118.7L0-2.9M-200.5-118.7L0-2.9M0 228.6V-2.9"/>
    <path d="M0-226.7l200.5 108-6.8 227.6-193.8 119.7-193.8-119.7-6.8-227.6z"/>
</g>
</svg>
