<?xml version="1.0" encoding="utf-8"?>
<!-- Generator: Adobe Illustrator 18.1.0, SVG Export Plug-In . SVG Version: 6.00 Build 0)  -->
<svg version="1.1" id="Layer_1" xmlns:inkscape="http://www.inkscape.org/namespaces/inkscape"
	 xmlns="http://www.w3.org/2000/svg" xmlns:xlink="http://www.w3.org/1999/xlink" x="0px" y="0px" viewBox="-613 39 500 500" width="200px"
	 enable-background="new -613 39 500 500" xml:space="preserve">
<g id="RenderLayer_LineSet" inkscape:groupmode="lineset" inkscape:label="RenderLayer_LineSet">
	<g id="frame_0000" inkscape:groupmode="frame" inkscape:label="frame_0000">
		<g id="fills" inkscape:groupmode="layer" inkscape:label="fills" xmlns:inkscape="http://www.inkscape.org/namespaces/inkscape">
			<path fill="rgb(17, 17, 24)" d="M-162.5,170.3L-363,62.3l-200.5,108l6.8,227.6L-363,517.6L-169.2,398L-162.5,170.3z M-485.3,314.6
				l-1-55.9l48.9,28.6L-485.3,314.6z M-401.3,349.9l0.3,56.6l-47.9-28.8L-401.3,349.9z M-399.4,165.9l0.3,55.1l-49.2-28
				L-399.4,165.9z M-326.9,221l0.3-55.1l48.9,27.1L-326.9,221z M-325,406.5l0.3-56.6l47.6,27.8L-325,406.5z M-239.7,258.7l-1,55.9
				l-47.9-27.3L-239.7,258.7z"/>
		</g>
		<g id="strokes" inkscape:groupmode="layer" inkscape:label="strokes">
			<path fill="none" stroke="rgb(41, 234, 234)" stroke-width="3" stroke-linecap="round" stroke-linejoin="round" d="M-203.8,378
				c-40.5,24.7-81,49.4-121.5,74.1c0.3-47.9,0.6-95.9,0.8-143.8l0,0v0c41.4-24.2,82.7-48.4,124.1-72.6"/>
			<path fill="none" stroke="rgb(41, 234, 234)" stroke-width="3" stroke-linecap="round" stroke-linejoin="round" d="M-162.5,170.3
				c-66.8-36-133.7-72-200.5-108c-66.8,36-133.7,72-200.5,108c2.3,75.9,4.5,151.8,6.8,227.6c64.6,39.9,129.2,79.8,193.8,119.7
				c64.6-39.9,129.2-79.8,193.8-119.7C-167,322.1-164.7,246.2-162.5,170.3"/>
			<path fill="none" stroke="rgb(41, 234, 234)" stroke-width="3" stroke-linecap="round" stroke-linejoin="round" d="M-363,102.3
				c41.6,22.7,83.3,45.4,124.9,68.1c-41.6,23.7-83.3,47.4-124.9,71.2l0,0h0c-41.6-23.7-83.3-47.4-124.9-71.2"/>
			<path fill="none" stroke="rgb(41, 234, 234)" stroke-width="3" stroke-linecap="round" stroke-linejoin="round" d="M-162.5,170.3
				c-25.5,14.7-50.9,29.4-76.4,44.1l0,0c-41.4,23.9-82.7,47.8-124.1,71.7"/>
			<path fill="none" stroke="rgb(41, 234, 234)" stroke-width="3" stroke-linecap="round" stroke-linejoin="round" d="M-563.5,170.3
				c25.5,14.7,50.9,29.4,76.4,44.1l0,0c41.4,23.9,82.7,47.8,124.1,71.7c0,47.8,0,95.5,0,143.3l0,0c0,29.4,0,58.8,0,88.2"/>
			<path fill="none" stroke="rgb(41, 234, 234)" stroke-width="3" stroke-linecap="round" stroke-linejoin="round" d="M-487.9,170.4
				c41.6-22.7,83.3-45.4,124.9-68.1c0,14.5,0,29,0,43.5"/>
			<path fill="none" stroke="rgb(41, 234, 234)" stroke-width="3" stroke-linecap="round" stroke-linejoin="round" d="M-525.6,235.7
				c41.4,24.2,82.7,48.4,124.1,72.6l0,0l0,0c0.3,47.9,0.6,95.9,0.8,143.8c-40.5-24.7-81-49.4-121.5-74.1"/>
			<path fill="none" stroke="rgb(41, 234, 234)" stroke-width="3" stroke-linecap="round" stroke-linejoin="round" d="M-200.4,235.7
				c-1.2,47.4-2.3,94.8-3.5,142.3c-12.6-7.3-25.1-14.5-37.7-21.8"/>
			<path fill="none" stroke="rgb(41, 234, 234)" stroke-width="3" stroke-linecap="round" stroke-linejoin="round" d="M-484.5,356.2
				c-12.6,7.3-25.1,14.5-37.7,21.8c-1.2-47.4-2.3-94.8-3.5-142.3"/>
			<path fill="none" stroke="rgb(41, 234, 234)" stroke-width="3" stroke-linecap="round" stroke-linejoin="round" d="M-239.7,258.7
				c-0.6,32.5-1.2,65-1.8,97.5l0,0c-27.8,16.8-55.7,33.5-83.5,50.3"/>
			<path fill="none" stroke="rgb(41, 234, 234)" stroke-width="3" stroke-linecap="round" stroke-linejoin="round" d="M-241.5,356.2
				c-27.7-16-55.3-31.9-83-47.9"/>
			<path fill="none" stroke="rgb(41, 234, 234)" stroke-width="3" stroke-linecap="round" stroke-linejoin="round" d="M-448.3,193
				c28.4-15.7,56.9-31.5,85.3-47.2l0,0c28.4,15.7,56.9,31.5,85.3,47.2"/>
			<path fill="none" stroke="rgb(41, 234, 234)" stroke-width="3" stroke-linecap="round" stroke-linejoin="round" d="M-401,406.5
				c-27.8-16.8-55.7-33.5-83.5-50.3l0,0c-0.6-32.5-1.2-65-1.8-97.5"/>
			<path fill="none" stroke="rgb(41, 234, 234)" stroke-width="3" stroke-linecap="round" stroke-linejoin="round" d="M-399.4,165.9
				c0.1,18.4,0.2,36.7,0.3,55.1"/>
			<path fill="none" stroke="rgb(41, 234, 234)" stroke-width="3" stroke-linecap="round" stroke-linejoin="round" d="M-437.4,287.4
				c-16,9.1-31.9,18.2-47.9,27.3"/>
			<path fill="none" stroke="rgb(41, 234, 234)" stroke-width="3" stroke-linecap="round" stroke-linejoin="round" d="M-448.9,377.7
				c15.9-9.3,31.7-18.5,47.6-27.8"/>
			<path fill="none" stroke="rgb(41, 234, 234)" stroke-width="3" stroke-linecap="round" stroke-linejoin="round" d="M-401.5,308.3
				c-27.7,16-55.3,31.9-83,47.9"/>
			<path fill="none" stroke="rgb(41, 234, 234)" stroke-width="3" stroke-linecap="round" stroke-linejoin="round" d="M-363,241.6
				c0-31.9,0-63.9,0-95.8"/>
			<path fill="none" stroke="rgb(41, 234, 234)" stroke-width="3" stroke-linecap="round" stroke-linejoin="round" d="M-326.9,221
				c0.1-18.4,0.2-36.7,0.3-55.1"/>
			<path fill="none" stroke="rgb(41, 234, 234)" stroke-width="3" stroke-linecap="round" stroke-linejoin="round" d="M-324.7,349.9
				c15.9,9.3,31.7,18.5,47.6,27.8"/>
			<path fill="none" stroke="rgb(41, 234, 234)" stroke-width="3" stroke-linecap="round" stroke-linejoin="round" d="M-240.7,314.6
				c-16-9.1-31.9-18.2-47.9-27.3"/>
		</g>
	</g>
</g>
</svg>
