<svg enable-background="new -613 39 500 500" viewBox="-613 39 500 500" width="200" xmlns="http://www.w3.org/2000/svg"><path d="m-162.5 170.3-200.5-108-200.5 108 6.8 227.6 193.7 119.7 193.8-119.6zm-322.8 144.3-1-55.9 48.9 28.6zm84 35.3.3 56.6-47.9-28.8zm1.9-184 .3 55.1-49.2-28zm72.5 55.1.3-55.1 48.9 27.1zm1.9 185.5.3-56.6 47.6 27.8zm85.3-147.8-1 55.9-47.9-27.3z" fill="#111118"/><g fill="none" stroke="#29eaea" stroke-linecap="round" stroke-linejoin="round" stroke-width="3"><path d="m-203.8 378c-40.5 24.7-81 49.4-121.5 74.1.3-47.9.6-95.9.8-143.8 41.4-24.2 82.7-48.4 124.1-72.6"/><path d="m-162.5 170.3c-66.8-36-133.7-72-200.5-108-66.8 36-133.7 72-200.5 108 2.3 75.9 4.5 151.8 6.8 227.6l193.8 119.7c64.6-39.9 129.2-79.8 193.8-119.7 2.1-75.8 4.4-151.7 6.6-227.6"/><path d="m-363 102.3c41.6 22.7 83.3 45.4 124.9 68.1-41.6 23.7-83.3 47.4-124.9 71.2-41.6-23.7-83.3-47.4-124.9-71.2"/><path d="m-162.5 170.3c-25.5 14.7-50.9 29.4-76.4 44.1-41.4 23.9-82.7 47.8-124.1 71.7"/><path d="m-563.5 170.3c25.5 14.7 50.9 29.4 76.4 44.1 41.4 23.9 82.7 47.8 124.1 71.7v143.3 88.2"/><path d="m-487.9 170.4c41.6-22.7 83.3-45.4 124.9-68.1v43.5"/><path d="m-525.6 235.7c41.4 24.2 82.7 48.4 124.1 72.6.3 47.9.6 95.9.8 143.8-40.5-24.7-81-49.4-121.5-74.1"/><path d="m-200.4 235.7c-1.2 47.4-2.3 94.8-3.5 142.3-12.6-7.3-25.1-14.5-37.7-21.8"/><path d="m-484.5 356.2c-12.6 7.3-25.1 14.5-37.7 21.8-1.2-47.4-2.3-94.8-3.5-142.3"/><path d="m-239.7 258.7c-.6 32.5-1.2 65-1.8 97.5-27.8 16.8-55.7 33.5-83.5 50.3"/><path d="m-241.5 356.2c-27.7-16-55.3-31.9-83-47.9"/><path d="m-448.3 193c28.4-15.7 56.9-31.5 85.3-47.2 28.4 15.7 56.9 31.5 85.3 47.2"/><path d="m-401 406.5c-27.8-16.8-55.7-33.5-83.5-50.3-.6-32.5-1.2-65-1.8-97.5"/><path d="m-399.4 165.9c.1 18.4.2 36.7.3 55.1"/><path d="m-437.4 287.4c-16 9.1-31.9 18.2-47.9 27.3"/><path d="m-448.9 377.7c15.9-9.3 31.7-18.5 47.6-27.8"/><path d="m-401.5 308.3c-27.7 16-55.3 31.9-83 47.9"/><path d="m-363 241.6c0-31.9 0-63.9 0-95.8"/><path d="m-326.9 221c.1-18.4.2-36.7.3-55.1"/><path d="m-324.7 349.9c15.9 9.3 31.7 18.5 47.6 27.8"/><path d="m-240.7 314.6c-16-9.1-31.9-18.2-47.9-27.3"/></g></svg>